<?xml version="1.0" encoding="UTF-8" standalone="no"?>
<!-- Created with Inkscape (http://www.inkscape.org/) -->

<svg
   version="1.1"
   id="svg2"
   xml:space="preserve"
   width="2465.6367"
   height="790.12305"
   viewBox="0 0 2465.6367 790.12305"
   xmlns="http://www.w3.org/2000/svg"
   xmlns:svg="http://www.w3.org/2000/svg"><defs
     id="defs6"><clipPath
       clipPathUnits="userSpaceOnUse"
       id="clipPath16"><path
         d="M 0,1980 H 1980 V 0 H 0 Z"
         id="path14" /></clipPath></defs><g
     id="g8"
     transform="matrix(1.3333333,0,0,-1.3333333,-87.132264,1715.3576)"><g
       id="g10"><g
         id="g12"
         clip-path="url(#clipPath16)"><g
           id="g18"
           transform="translate(65.3492,882.3978)"><path
             d="M 0,0 C 0,19.497 15.361,35.449 34.858,35.449 53.764,35.449 69.717,19.497 69.717,0 69.717,-19.497 53.764,-34.859 34.858,-34.859 15.361,-34.859 0,-19.497 0,0"
             style="fill:#da604f;fill-opacity:1;fill-rule:nonzero;stroke:none"
             id="path20" /></g><g
           id="g22"
           transform="translate(458.8264,850.4932)"><path
             d="m 0,0 h -52.583 c -40.767,0 -51.992,11.226 -94.531,69.717 -9.453,12.407 -44.902,57.309 -44.902,57.309 l 55.536,57.31 c 0,0 87.442,82.124 8.863,80.943 v 7.68 H 5.317 v -7.68 C -21.86,264.688 -55.537,258.779 -151.25,154.204 -107.529,92.168 -49.629,31.313 -49.629,31.313 -31.904,9.453 -13.589,7.68 0,7.68 Z m -183.745,0 h -99.849 v 7.68 c 22.451,6.5 23.633,16.544 23.633,46.676 v 324.36 c 0,20.679 -5.317,28.95 -29.541,33.677 v 7.68 l 81.533,15.952 V 54.356 c 0,-32.495 2.955,-41.358 24.224,-46.676 z"
             style="fill:#da604f;fill-opacity:1;fill-rule:nonzero;stroke:none"
             id="path24" /></g><g
           id="g26"
           transform="translate(668.559,1115.7717)"><path
             d="m 0,0 c 11.816,-14.18 10.044,-34.268 -4.136,-46.084 -13.589,-11.226 -33.677,-10.044 -46.084,4.136 -5.317,6.499 -8.271,14.77 -6.499,22.451 1.773,10.044 -37.812,-4.136 -56.128,-43.721 v -147.114 c 0,-33.086 2.954,-41.948 24.224,-47.266 v -7.681 h -99.849 v 7.681 c 22.452,6.499 23.633,16.543 23.633,47.266 v 163.657 c 0,20.679 -5.317,28.95 -29.541,35.449 v 7.09 l 81.533,17.134 V -49.038 C -90.986,-8.863 -57.31,8.271 -33.677,11.225 -23.042,12.407 -8.272,9.453 0,0"
             style="fill:#da604f;fill-opacity:1;fill-rule:nonzero;stroke:none"
             id="path28" /></g><g
           id="g30"
           transform="translate(841.077,1121.089)"><path
             d="m 0,0 c -45.493,0 -76.216,-27.178 -76.216,-134.117 0,-106.938 30.723,-134.116 76.216,-134.116 44.903,0 75.034,27.178 75.034,134.116 C 75.034,-27.178 44.903,0 0,0 m 0,-275.913 c -89.805,0 -136.479,64.399 -136.479,141.796 0,77.989 46.674,141.798 136.479,141.798 90.396,0 135.889,-63.809 135.889,-141.798 0,-77.397 -45.493,-141.796 -135.889,-141.796"
             style="fill:#da604f;fill-opacity:1;fill-rule:nonzero;stroke:none"
             id="path32" /></g><g
           id="g34"
           transform="translate(1160.1143,1111.0449)"><path
             d="M 0,0 C -39.585,0 -64.399,-28.359 -67.944,-69.126 V -180.2 c 3.545,-52.583 34.858,-77.989 72.08,-77.989 38.994,0 77.988,28.36 77.988,123.482 C 82.124,-41.357 50.811,0 0,0 m 5.909,-265.869 c -30.133,0 -54.947,8.272 -73.853,22.451 v -121.118 c 0,-33.086 3.545,-39.585 24.224,-44.903 v -7.68 h -99.258 v 7.68 c 22.451,6.5 23.633,14.771 23.633,44.903 v 326.723 c 0,20.089 -5.318,26.587 -29.541,31.314 v 7.09 l 80.942,17.134 v -46.084 c 18.316,31.313 57.901,46.084 88.032,46.084 78.579,0 124.072,-62.627 124.072,-144.16 0,-92.169 -59.672,-139.434 -138.251,-139.434"
             style="fill:#da604f;fill-opacity:1;fill-rule:nonzero;stroke:none"
             id="path36" /></g><g
           id="g38"
           transform="translate(1627.4473,850.4932)"><path
             d="m 0,0 h -52.583 c -40.767,0 -51.992,11.226 -94.532,69.717 -9.453,12.407 -44.902,57.309 -44.902,57.309 l 55.537,57.31 c 0,0 87.442,82.124 8.862,80.943 v 7.68 H 5.317 v -7.68 C -21.86,264.688 -55.537,258.779 -151.25,154.204 -107.53,92.168 -49.629,31.313 -49.629,31.313 -31.905,9.453 -13.589,7.68 0,7.68 Z m -183.745,0 h -99.849 v 7.68 c 22.451,6.5 23.633,16.544 23.633,46.676 v 324.36 c 0,20.679 -5.318,28.95 -29.541,33.677 v 7.68 l 81.533,15.952 V 54.356 c 0,-32.495 2.954,-41.358 24.224,-46.676 z"
             style="fill:#da604f;fill-opacity:1;fill-rule:nonzero;stroke:none"
             id="path40" /></g><g
           id="g42"
           transform="translate(1711.3347,918.4379)"><path
             d="m 0,0 c 0,-17.134 10.635,-46.675 46.675,-46.675 31.313,0 46.084,22.451 51.992,36.631 V 77.988 C 30.131,61.445 0,35.449 0,0 m 196.152,-30.132 7.09,-2.954 c -3.545,-17.725 -23.633,-40.176 -54.356,-40.176 0,0 -46.674,-1.182 -50.219,49.629 -8.272,-28.36 -42.54,-49.629 -83.897,-49.629 0,0 -67.353,0 -67.353,60.854 0,59.083 50.219,72.08 151.25,98.076 v 34.268 c 0,60.855 -30.723,95.122 -77.988,73.262 -23.043,-11.226 -26.588,-22.451 -23.043,-23.042 7.09,-1.182 13.589,-4.136 18.316,-10.635 8.862,-11.816 6.499,-29.541 -5.908,-38.403 -11.816,-9.453 -28.95,-7.09 -37.812,5.317 -6.5,8.862 -7.681,20.679 -2.955,28.95 4.136,8.863 14.18,26.587 46.084,43.721 25.405,12.998 54.355,11.226 54.355,11.226 64.4,0 82.125,-47.857 82.125,-118.164 V -8.272 c 0,0 -0.591,-37.221 26.587,-37.221 0,0 13.588,0 17.724,15.361"
             style="fill:#da604f;fill-opacity:1;fill-rule:nonzero;stroke:none"
             id="path44" /></g></g></g></g></svg>
